<?xml version="1.0" standalone="no"?>
<!DOCTYPE svg PUBLIC "-//W3C//DTD SVG 20010904//EN"
 "http://www.w3.org/TR/2001/REC-SVG-20010904/DTD/svg10.dtd">
<svg version="1.0" xmlns="http://www.w3.org/2000/svg"
 width="1000.000000pt" height="1000.000000pt" viewBox="0 0 1000.000000 1000.000000"
 preserveAspectRatio="xMidYMid meet">

<g transform="translate(0.000000,1000.000000) scale(0.100000,-0.100000)"
fill="#000000" stroke="none">
<path d="M0 5000 l0 -5000 5000 0 5000 0 0 5000 0 5000 -5000 0 -5000 0 0
-5000z m5505 4071 c905 -120 1711 -513 2360 -1150 595 -584 986 -1296 1154
-2101 94 -449 107 -996 35 -1455 -85 -541 -281 -1063 -582 -1550 -31 -49 -59
-92 -62 -95 -3 -3 -27 -37 -53 -76 -97 -144 -291 -376 -457 -544 -139 -141
-365 -332 -525 -444 -44 -31 -84 -59 -90 -64 -5 -4 -50 -33 -100 -64 -527
-329 -1080 -525 -1710 -605 -201 -25 -749 -25 -955 0 -791 99 -1522 414 -2135
922 -131 109 -358 330 -466 455 -35 41 -72 83 -82 95 -53 58 -317 426 -317
440 0 2 -23 40 -51 86 -60 96 -167 304 -226 439 -408 925 -454 1997 -128 2950
119 348 296 696 512 1010 263 383 670 789 1059 1058 186 127 309 199 539 312
377 185 724 292 1195 370 30 5 107 14 170 20 63 5 131 12 150 14 19 2 166 3
325 1 217 -3 328 -9 440 -24z"/>
<path d="M5200 8934 c0 -3 33 -49 73 -102 265 -352 431 -689 533 -1077 28
-110 64 -339 70 -458 4 -65 11 -120 16 -123 4 -3 45 29 91 71 394 367 944 613
1512 676 117 13 136 20 114 41 -40 39 -189 154 -308 240 -451 323 -952 542
-1501 654 -198 41 -600 93 -600 78z m1137 -560 c54 -50 117 -108 141 -129 23
-22 42 -44 42 -51 0 -13 -276 -278 -294 -282 -9 -2 -266 258 -273 277 -4 10
266 283 276 279 6 -1 54 -44 108 -94z"/>
<path d="M4580 8915 c-321 -58 -557 -205 -709 -440 -68 -105 -89 -148 -136
-285 -79 -231 -115 -269 -377 -400 -103 -51 -201 -104 -218 -119 l-32 -26 42
-165 42 -164 -35 -31 c-19 -16 -51 -43 -71 -60 -35 -28 -41 -42 -79 -170 -36
-126 -41 -152 -42 -255 -1 -111 -2 -117 -29 -150 -15 -19 -65 -66 -111 -105
-198 -165 -179 -301 62 -444 39 -23 188 -98 332 -166 143 -68 282 -136 308
-151 217 -125 416 -339 531 -569 180 -361 183 -815 7 -1165 -73 -147 -133
-218 -449 -534 -322 -321 -708 -720 -791 -816 -161 -187 -220 -337 -213 -534
10 -243 120 -410 368 -558 345 -206 717 -357 1090 -443 137 -31 243 -48 534
-85 132 -17 243 -33 247 -36 4 -2 10 0 14 6 5 8 -47 84 -75 110 -3 3 -26 32
-51 65 -410 540 -599 1071 -599 1678 0 477 107 901 346 1378 96 194 150 285
310 525 74 110 134 207 134 215 0 8 -43 79 -96 159 -194 290 -298 465 -400
670 -146 296 -242 602 -291 927 -22 146 -25 550 -5 688 61 424 198 783 440
1150 36 54 125 179 132 185 3 3 17 21 30 40 14 19 32 44 42 54 10 11 18 23 18
28 0 12 -136 8 -220 -7z"/>
<path d="M4974 8888 c-174 -146 -452 -591 -562 -900 -93 -264 -142 -547 -142
-827 0 -617 190 -1181 605 -1803 54 -82 101 -148 105 -148 4 0 17 53 29 118
52 277 143 597 240 841 106 265 329 649 459 791 12 14 25 36 29 49 10 41 -5
401 -22 511 -77 505 -294 941 -695 1393 -4 4 -25 -7 -46 -25z"/>
<path d="M3821 8763 c-13 -3 -84 -26 -156 -53 -590 -216 -1032 -494 -1445
-909 -149 -150 -188 -192 -271 -296 -507 -635 -802 -1352 -881 -2140 -15 -155
-15 -566 1 -720 82 -814 390 -1563 890 -2165 134 -161 465 -490 493 -490 4 0
5 55 2 123 -7 144 13 263 66 390 33 80 135 242 197 312 20 22 280 285 578 585
606 609 616 621 678 807 120 362 85 735 -97 1038 -140 233 -336 393 -626 510
-221 89 -559 298 -649 401 -82 93 -97 190 -47 299 21 46 53 86 141 173 63 63
115 119 115 125 0 6 -10 51 -22 99 -20 82 -20 90 -5 125 9 21 37 97 63 168 31
82 57 137 71 148 12 10 41 35 63 55 l42 37 -30 90 c-56 169 -54 233 7 294 35
35 62 50 216 122 148 68 327 172 334 193 5 11 11 43 15 70 24 160 134 382 275
551 22 27 41 53 41 57 0 8 -18 8 -59 1z m-1235 -3920 c32 -53 64 -106 73 -117
42 -55 120 -119 216 -177 58 -35 105 -67 105 -71 0 -4 -42 -30 -92 -57 -51
-27 -110 -61 -131 -76 -35 -25 -105 -110 -120 -145 -13 -34 -103 -174 -113
-177 -6 -2 -23 20 -39 49 -58 109 -128 209 -173 249 -26 23 -98 65 -160 95
-64 31 -110 59 -107 64 4 6 48 31 98 57 174 87 224 132 288 258 54 105 79 145
89 145 5 0 35 -44 66 -97z"/>
<path d="M7455 7763 c-479 -61 -921 -245 -1300 -542 -65 -51 -264 -244 -310
-301 -291 -359 -495 -780 -620 -1278 -36 -145 -106 -495 -100 -501 8 -7 329
55 490 95 348 87 711 237 948 391 81 53 294 211 346 258 460 404 728 923 815
1575 9 63 17 158 18 210 l3 95 -130 1 c-71 1 -143 0 -160 -3z"/>
<path d="M7895 7608 c-17 -142 -61 -379 -96 -515 -88 -344 -214 -589 -534
-1033 -38 -52 -72 -96 -77 -98 -4 -2 -8 -10 -8 -17 0 -8 19 -16 53 -20 202
-26 466 -87 648 -151 113 -39 325 -130 404 -174 28 -15 86 -47 129 -71 98 -53
291 -182 422 -282 54 -42 101 -74 104 -72 8 5 -13 228 -36 380 -113 781 -444
1496 -958 2072 -16 18 -33 33 -37 33 -4 0 -10 -24 -14 -52z"/>
<path d="M6928 5727 c-120 -94 -197 -148 -326 -225 -302 -182 -627 -312 -1052
-421 -107 -27 -188 -52 -180 -55 8 -3 60 -15 115 -27 389 -82 754 -217 1070
-397 74 -42 314 -198 325 -211 3 -3 25 -22 50 -41 l45 -35 170 1 c114 0 202 6
265 18 516 93 1110 373 1368 644 34 37 62 74 62 83 0 14 -100 94 -265 211
-264 188 -617 353 -915 428 -194 49 -426 80 -600 80 -63 0 -67 -1 -132 -53z"/>
<path d="M8926 4912 c-7 -12 -163 -130 -256 -194 -252 -174 -555 -328 -815
-414 -185 -60 -436 -116 -586 -130 -43 -3 -83 -10 -89 -14 -12 -8 52 -99 203
-289 130 -165 207 -296 280 -481 74 -190 164 -509 242 -865 31 -145 34 -155
44 -155 4 0 34 34 66 76 33 42 65 82 70 88 6 6 35 45 66 86 417 563 661 1159
759 1860 19 134 40 424 31 433 -5 5 -11 4 -15 -1z m-720 -826 c21 -24 77 -85
124 -136 47 -51 88 -98 93 -106 5 -9 -35 -56 -124 -148 -73 -75 -137 -136
-144 -136 -17 0 -286 261 -283 275 4 18 271 295 284 295 6 0 28 -20 50 -44z"/>
<path d="M5154 4898 c-8 -12 0 -66 37 -263 109 -574 336 -1092 642 -1465 315
-384 738 -659 1232 -801 248 -71 374 -93 536 -94 101 0 150 4 161 12 16 13 14
39 -18 293 -61 480 -217 875 -495 1247 -94 125 -335 367 -464 464 -421 318
-943 527 -1495 599 -47 6 -95 12 -108 14 -12 2 -25 -1 -28 -6z"/>
<path d="M4913 4748 c-253 -370 -456 -804 -552 -1183 -58 -227 -76 -373 -76
-635 0 -349 45 -604 161 -919 111 -298 312 -623 532 -860 l42 -46 51 55 c27
30 84 100 125 155 42 55 81 107 87 115 26 34 118 180 163 260 191 341 300 722
320 1120 8 159 23 117 -159 435 -130 228 -262 476 -315 595 -60 132 -141 377
-225 679 -45 162 -87 296 -93 298 -6 2 -33 -29 -61 -69z"/>
<path d="M5896 2848 c-3 -18 -7 -76 -11 -128 -11 -201 -70 -483 -144 -687 -61
-170 -119 -296 -221 -478 -63 -113 -272 -407 -320 -450 -29 -27 -25 -45 10
-45 128 0 527 62 750 116 588 143 1184 454 1640 854 34 30 67 58 73 62 20 12
4 16 -103 28 -335 35 -663 127 -950 266 -168 82 -269 143 -465 287 -16 12 -78
64 -137 115 -59 50 -110 92 -112 92 -3 0 -7 -15 -10 -32z"/>
</g>
</svg>
