<?xml version="1.0" standalone="no"?>
<!DOCTYPE svg PUBLIC "-//W3C//DTD SVG 20010904//EN"
 "http://www.w3.org/TR/2001/REC-SVG-20010904/DTD/svg10.dtd">
<svg version="1.0" xmlns="http://www.w3.org/2000/svg"
 width="1413.000000pt" height="363.000000pt" viewBox="0 0 1413.000000 363.000000"
 preserveAspectRatio="xMidYMid meet">

<g transform="translate(0.000000,363.000000) scale(0.100000,-0.100000)"
fill="#000000" stroke="none">
<path d="M6893 3533 c8 -7 108 -5 116 3 2 2 -24 4 -59 4 -35 0 -60 -3 -57 -7z"/>
<path d="M6640 3514 c-30 -8 -92 -32 -137 -54 -104 -51 -151 -103 -223 -246
-63 -125 -86 -146 -215 -190 -82 -28 -103 -39 -92 -50 3 -3 21 3 39 14 18 11
51 25 73 32 100 31 205 109 205 150 0 12 7 28 15 36 8 9 15 26 15 38 0 13 11
35 25 50 14 15 25 31 25 35 0 5 7 11 15 15 8 3 15 10 15 16 0 14 32 44 71 66
18 11 39 24 46 30 14 13 140 54 170 55 10 0 27 4 38 9 18 8 18 9 -5 9 -14 0
-50 -7 -80 -15z"/>
<path d="M6760 3443 c-101 -127 -184 -287 -220 -429 -23 -89 -24 -94 -10 -94
6 0 10 11 10 24 0 13 7 37 15 52 8 16 15 37 15 47 0 9 5 17 10 17 6 0 10 14
10 30 0 18 6 33 15 36 10 4 15 20 15 44 0 21 7 43 15 50 8 7 15 18 15 25 0 12
21 41 63 86 9 10 17 24 17 29 0 6 7 13 15 16 8 4 15 13 15 20 0 8 14 28 30 44
24 24 36 29 57 24 l26 -7 -19 26 c-10 15 -24 27 -30 27 -6 0 -34 -30 -64 -67z"/>
<path d="M6305 3459 c-49 -16 -136 -52 -192 -79 -56 -26 -104 -46 -106 -43 -8
7 -185 -105 -277 -176 -302 -232 -533 -580 -619 -936 -13 -50 -25 -98 -27
-107 -3 -10 -2 -18 3 -18 9 0 43 109 43 138 0 11 7 25 15 32 8 7 15 23 15 37
0 13 7 31 15 39 9 9 15 34 15 60 0 24 5 44 10 44 6 0 10 9 10 20 0 11 7 23 15
26 8 4 15 14 15 24 0 10 7 20 15 24 8 3 15 14 15 25 0 10 7 21 15 25 9 3 15
18 15 36 0 16 5 30 10 30 6 0 10 7 10 15 0 9 7 18 15 21 8 4 15 14 15 23 1 9
14 27 30 41 17 13 30 31 30 41 0 9 11 28 25 43 14 15 25 31 25 37 0 5 5 9 10
9 12 0 50 37 50 49 0 11 90 101 102 101 4 0 8 6 8 13 0 8 11 20 25 27 14 7 25
17 25 22 0 4 5 8 11 8 6 0 24 13 40 30 17 16 43 37 59 47 17 9 30 21 30 25 0
4 7 8 15 8 8 0 15 5 15 10 0 6 7 10 15 10 8 0 15 4 15 9 0 5 12 14 28 20 15 5
43 19 62 30 33 18 191 93 235 111 38 16 110 39 153 50 23 6 42 15 42 20 0 6
-1 10 -2 9 -2 0 -43 -14 -93 -30z"/>
<path d="M6990 3427 c0 -10 59 -97 65 -97 3 0 5 6 5 13 0 13 -69 97 -70 84z"/>
<path d="M7075 3290 c3 -5 8 -10 11 -10 2 0 4 5 4 10 0 6 -5 10 -11 10 -5 0
-7 -4 -4 -10z"/>
<path d="M7090 3265 c0 -3 12 -29 26 -58 15 -28 32 -67 40 -87 l13 -35 0 38
c1 20 -3 37 -8 37 -5 0 -12 16 -15 35 -4 19 -11 35 -15 35 -5 0 -11 9 -14 20
-4 17 -27 30 -27 15z"/>
<path d="M7465 3221 c-37 -22 -72 -61 -57 -61 7 0 12 5 12 10 0 6 7 10 15 10
8 0 15 4 15 9 0 5 11 12 25 15 14 4 25 13 25 21 0 19 1 19 -35 -4z"/>
<path d="M7998 3053 c6 -2 18 -2 25 0 6 3 1 5 -13 5 -14 0 -19 -2 -12 -5z"/>
<path d="M8150 3050 c0 -5 5 -10 11 -10 5 0 7 5 4 10 -3 6 -8 10 -11 10 -2 0
-4 -4 -4 -10z"/>
<path d="M7903 3043 c9 -2 25 -2 35 0 9 3 1 5 -18 5 -19 0 -27 -2 -17 -5z"/>
<path d="M7750 3014 c-52 -14 -138 -45 -190 -70 -91 -43 -247 -150 -236 -161
5 -5 53 27 88 59 14 13 28 21 136 80 68 37 146 66 252 94 47 12 76 22 65 23
-11 0 -63 -11 -115 -25z"/>
<path d="M7197 2995 c2 -16 8 -68 14 -115 5 -46 11 -85 12 -86 1 -1 13 7 26
17 l24 20 -21 6 c-18 4 -22 13 -23 52 -1 25 -1 50 0 55 1 4 -5 18 -12 30 -8
12 -17 28 -20 36 -2 8 -3 2 0 -15z"/>
<path d="M8090 2952 c0 -44 -14 -143 -26 -184 -3 -10 -2 -18 3 -18 10 0 30 61
39 119 5 32 12 43 30 47 12 3 29 2 35 -2 7 -4 -5 13 -26 39 -22 26 -43 47 -47
47 -4 0 -8 -22 -8 -48z"/>
<path d="M8205 2990 c3 -5 8 -10 11 -10 2 0 4 5 4 10 0 6 -5 10 -11 10 -5 0
-7 -4 -4 -10z"/>
<path d="M6019 2900 c27 -59 9 -116 -42 -133 -6 -2 -7 -11 -3 -23 6 -14 10
-15 13 -5 3 7 21 29 39 48 19 19 34 43 34 52 0 23 -26 75 -45 91 -12 10 -11 2
4 -30z"/>
<path d="M8342 2811 c18 -28 36 -50 41 -50 14 -1 7 30 -8 35 -8 4 -15 11 -15
18 0 11 -34 46 -45 46 -3 0 10 -22 27 -49z"/>
<path d="M7259 2723 c-57 -62 -109 -133 -155 -214 -61 -107 -153 -349 -133
-349 5 0 9 7 9 16 0 15 28 73 41 84 3 3 9 17 13 33 3 15 11 27 16 27 6 0 10
20 10 44 0 26 6 48 15 56 8 7 15 19 15 27 0 7 7 16 15 19 8 4 15 14 15 24 0
10 7 20 15 24 8 3 15 12 15 21 0 8 5 15 10 15 6 0 10 11 10 25 0 14 7 28 15
31 8 4 15 10 15 15 0 6 14 23 30 39 17 16 30 34 30 40 0 5 5 10 10 10 6 0 10
7 10 15 0 7 8 18 17 24 10 5 15 12 12 15 -3 4 -26 -15 -50 -41z"/>
<path d="M8035 2658 c-22 -68 -94 -213 -134 -271 -17 -25 -53 -70 -82 -101
-35 -39 -46 -56 -34 -56 16 0 54 37 55 53 0 5 18 25 40 46 22 20 40 42 40 48
0 6 7 13 15 17 8 3 15 17 15 31 0 14 5 25 10 25 6 0 10 9 10 20 0 11 7 23 15
26 8 4 15 14 15 24 0 10 7 20 15 24 8 3 15 17 15 31 0 14 4 25 9 25 10 0 26
98 18 106 -3 3 -13 -19 -22 -48z"/>
<path d="M8420 2695 c0 -3 17 -38 38 -77 30 -58 38 -68 40 -48 2 14 -3 27 -12
32 -9 5 -16 20 -16 33 0 16 -6 25 -15 25 -8 0 -15 6 -15 14 0 8 -4 18 -10 21
-5 3 -10 4 -10 0z"/>
<path d="M6010 2665 c0 -10 -14 -17 -40 -21 l-40 -7 0 -54 c0 -51 -3 -57 -51
-108 -52 -55 -67 -101 -41 -127 9 -9 12 -2 12 30 0 32 6 48 30 72 16 16 32 30
35 30 3 0 14 9 25 20 15 15 20 33 20 73 0 49 2 53 30 64 17 6 30 18 30 27 0 9
-2 16 -5 16 -3 0 -5 -7 -5 -15z"/>
<path d="M6532 2570 c0 -14 2 -19 5 -12 2 6 2 18 0 25 -3 6 -5 1 -5 -13z"/>
<path d="M6545 2505 c9 -55 24 -80 24 -40 0 17 -7 41 -15 55 -15 24 -15 24 -9
-15z"/>
<path d="M8530 2468 c0 -7 5 -20 10 -28 8 -12 10 -11 10 7 0 12 -4 25 -10 28
-5 3 -10 0 -10 -7z"/>
<path d="M6570 2418 c0 -7 5 -20 10 -28 8 -12 10 -11 10 7 0 12 -4 25 -10 28
-5 3 -10 0 -10 -7z"/>
<path d="M8555 2398 c4 -14 17 -58 30 -99 l23 -74 1 46 c1 25 -5 54 -14 65 -8
10 -15 29 -15 40 0 12 -7 27 -16 35 -13 11 -14 9 -9 -13z"/>
<path d="M13847 2354 c-43 -25 -75 -49 -71 -55 5 -9 23 0 44 21 3 3 21 14 41
24 47 25 74 45 68 51 -3 2 -40 -16 -82 -41z"/>
<path d="M6600 2343 c0 -4 5 -15 10 -23 8 -13 10 -13 10 2 0 9 -4 20 -10 23
-5 3 -10 3 -10 -2z"/>
<path d="M457 2227 c-63 -20 -155 -107 -112 -107 8 0 15 5 15 11 0 14 25 39
39 39 6 0 11 6 11 13 0 16 56 37 124 47 l51 8 -45 0 c-25 0 -62 -5 -83 -11z"/>
<path d="M1281 2235 c0 -5 8 -26 19 -45 14 -26 19 -30 19 -15 0 11 -8 31 -19
45 -11 14 -19 21 -19 15z"/>
<path d="M1925 2210 c-26 -29 -15 -31 24 -3 27 18 30 23 14 23 -11 0 -28 -9
-38 -20z"/>
<path d="M2861 2214 c0 -11 3 -14 6 -6 3 7 2 16 -1 19 -3 4 -6 -2 -5 -13z"/>
<path d="M3910 2220 c-24 -15 -7 -19 25 -5 23 10 25 14 10 14 -11 0 -27 -3
-35 -9z"/>
<path d="M4550 2209 c0 -24 23 -21 28 4 2 10 -3 17 -12 17 -10 0 -16 -9 -16
-21z"/>
<path d="M2540 2212 c0 -5 37 -7 83 -5 120 6 126 11 15 12 -54 0 -98 -3 -98
-7z"/>
<path d="M3170 2210 c0 -6 19 -7 48 -3 64 8 66 13 4 13 -29 0 -52 -4 -52 -10z"/>
<path d="M4230 2212 c0 -4 37 -6 83 -4 125 4 134 9 20 11 -57 0 -103 -2 -103
-7z"/>
<path d="M6660 2211 c0 -5 5 -13 10 -16 6 -3 10 -2 10 4 0 5 -4 13 -10 16 -5
3 -10 2 -10 -4z"/>
<path d="M10197 2158 c7 -76 18 -93 26 -41 4 22 2 39 -3 41 -6 2 -10 17 -10
33 0 16 -4 29 -9 29 -5 0 -7 -28 -4 -62z"/>
<path d="M12074 2194 c4 -15 13 -41 21 -58 13 -31 13 -31 14 -5 1 25 -25 89
-36 89 -3 0 -2 -12 1 -26z"/>
<path d="M12510 2205 c-8 -9 -8 -15 -2 -15 18 0 42 12 42 21 0 14 -26 10 -40
-6z"/>
<path d="M12910 2200 c-12 -12 -20 -34 -21 -57 0 -21 -4 -156 -7 -300 l-7
-261 -30 -44 c-37 -51 -114 -97 -170 -99 l-40 -2 39 -4 c64 -7 206 78 206 123
0 6 7 17 15 24 13 10 15 50 15 240 l0 228 29 10 c20 7 30 19 35 42 10 51 7 68
-11 73 -17 4 -17 5 0 6 10 1 17 9 17 21 0 15 -7 20 -25 20 -14 0 -34 -9 -45
-20z"/>
<path d="M13504 2204 c3 -9 6 -23 7 -32 0 -12 3 -10 9 6 7 16 18 22 42 22 25
0 29 3 18 10 -8 5 -30 10 -49 10 -26 0 -32 -3 -27 -16z"/>
<path d="M9190 2201 c0 -8 130 -3 139 5 2 2 -28 4 -67 4 -40 0 -72 -4 -72 -9z"/>
<path d="M9900 2200 c0 -11 14 -11 50 0 22 7 21 8 -12 9 -21 1 -38 -3 -38 -9z"/>
<path d="M10048 2203 c6 -2 18 -2 25 0 6 3 1 5 -13 5 -14 0 -19 -2 -12 -5z"/>
<path d="M10765 2200 c-3 -5 15 -7 47 -3 70 8 74 13 10 13 -28 0 -53 -4 -57
-10z"/>
<path d="M11370 2202 c0 -5 37 -7 83 -5 120 6 126 11 15 12 -54 0 -98 -3 -98
-7z"/>
<path d="M11665 2200 c4 -6 11 -8 16 -5 14 9 11 15 -7 15 -8 0 -12 -5 -9 -10z"/>
<path d="M13082 2200 c-46 -11 -55 -23 -10 -15 20 4 53 7 72 8 20 1 36 5 36 9
0 10 -53 9 -98 -2z"/>
<path d="M13299 2148 c-3 -132 3 -634 7 -650 3 -10 8 -18 12 -18 10 0 9 672
-1 688 -8 12 9 22 58 35 11 2 -1 5 -27 6 l-48 1 -1 -62z"/>
<path d="M13730 2194 c0 -12 3 -14 13 -6 6 5 23 12 37 15 18 3 15 5 -12 6 -29
1 -38 -3 -38 -15z"/>
<path d="M13888 2203 c7 -3 16 -2 19 1 4 3 -2 6 -13 5 -11 0 -14 -3 -6 -6z"/>
<path d="M14020 2200 c0 -5 5 -10 10 -10 6 0 10 5 10 10 0 6 -4 10 -10 10 -5
0 -10 -4 -10 -10z"/>
<path d="M6680 2174 c0 -4 10 -23 22 -43 19 -29 23 -33 26 -17 2 10 -3 23 -12
28 -9 5 -16 16 -16 23 0 8 -4 15 -10 15 -5 0 -10 -3 -10 -6z"/>
<path d="M8620 2172 c0 -7 7 -56 16 -110 24 -148 14 -476 -20 -631 -14 -63
-23 -117 -21 -119 2 -3 7 4 11 14 3 10 10 29 15 42 5 12 16 71 25 130 19 120
21 594 3 600 -5 2 -9 16 -9 30 0 27 -20 70 -20 44z"/>
<path d="M12489 2150 c-3 -19 -4 -149 -2 -287 2 -199 6 -260 18 -289 8 -21 18
-34 22 -31 3 4 0 14 -8 23 -11 13 -15 81 -19 318 -3 166 -8 285 -11 266z"/>
<path d="M3884 1850 c0 -179 2 -252 3 -162 2 89 2 235 0 325 -1 89 -3 16 -3
-163z"/>
<path d="M7767 2163 c18 -2 50 -2 70 0 21 2 7 4 -32 4 -38 0 -55 -2 -38 -4z"/>
<path d="M9901 2033 c1 -76 4 -124 6 -108 3 17 9 34 14 40 16 16 11 174 -6
191 -13 14 -15 0 -14 -123z"/>
<path d="M13728 2158 c-2 -7 -1 -76 2 -153 l6 -140 2 153 c2 142 0 170 -10
140z"/>
<path d="M3172 2085 l0 -80 9 58 c5 33 4 67 -1 80 -6 16 -9 -1 -8 -58z"/>
<path d="M3510 2151 c0 -5 5 -13 10 -16 6 -3 10 -2 10 4 0 5 -4 13 -10 16 -5
3 -10 2 -10 -4z"/>
<path d="M7666 2145 c-24 -18 -13 -18 34 0 31 12 32 14 10 14 -14 0 -34 -6
-44 -14z"/>
<path d="M9569 2127 c26 -28 31 -32 31 -19 0 4 -13 16 -28 26 l-27 19 24 -26z"/>
<path d="M11076 2135 c4 -8 8 -15 10 -15 2 0 4 7 4 15 0 8 -4 15 -10 15 -5 0
-7 -7 -4 -15z"/>
<path d="M1330 2116 c0 -8 5 -18 10 -21 6 -3 10 1 10 9 0 8 -4 18 -10 21 -5 3
-10 -1 -10 -9z"/>
<path d="M4230 2044 c0 -56 4 -84 9 -75 10 15 6 149 -4 159 -3 3 -5 -35 -5
-84z"/>
<path d="M7570 2083 c-89 -56 -225 -118 -370 -168 -74 -25 -119 -43 -100 -39
121 23 429 153 504 213 51 41 35 38 -34 -6z"/>
<path d="M11377 2106 c-4 -10 -5 -21 -2 -24 9 -9 17 6 13 25 -3 17 -4 17 -11
-1z"/>
<path d="M317 2103 c-10 -9 -37 -71 -37 -84 0 -5 5 -9 10 -9 6 0 10 8 10 17 0
9 7 24 16 34 16 18 16 58 1 42z"/>
<path d="M11096 2072 c12 -77 -36 -152 -120 -187 -44 -19 -42 -30 3 -20 31 7
111 74 111 94 0 5 7 14 16 19 19 11 16 123 -4 130 -9 3 -11 -6 -6 -36z"/>
<path d="M14060 2095 c-17 -20 -5 -33 38 -41 31 -6 32 -5 32 25 0 28 -3 31
-29 31 -16 0 -34 -7 -41 -15z"/>
<path d="M3541 2036 c0 -37 -6 -76 -14 -93 -29 -55 -110 -113 -159 -113 -22
-1 -22 -1 -5 -15 16 -12 21 -11 38 6 10 10 25 19 32 19 23 0 97 54 97 71 0 9
7 22 15 29 17 14 22 145 6 155 -6 3 -10 -22 -10 -59z"/>
<path d="M6937 2061 c-4 -19 -5 -36 -2 -39 10 -11 16 7 13 40 l-3 33 -8 -34z"/>
<path d="M9610 2071 c0 -6 5 -13 10 -16 6 -3 10 1 10 9 0 9 -4 16 -10 16 -5 0
-10 -4 -10 -9z"/>
<path d="M1202 2049 c-5 -14 -12 -38 -14 -55 -3 -27 -1 -29 35 -30 20 -1 37 2
36 5 0 3 -11 29 -23 56 -23 49 -24 50 -34 24z"/>
<path d="M6348 2044 c12 -17 28 -37 37 -44 28 -23 16 -2 -21 37 -32 33 -34 34
-16 7z"/>
<path d="M5074 2035 c-12 -42 -11 -436 1 -457 7 -11 9 47 6 184 -2 134 1 207
8 222 7 13 8 32 2 51 l-8 30 -9 -30z"/>
<path d="M11377 2053 c-11 -10 -8 -123 3 -123 6 0 10 28 10 65 0 65 -1 71 -13
58z"/>
<path d="M12126 2045 c4 -8 8 -15 10 -15 2 0 4 7 4 15 0 8 -4 15 -10 15 -5 0
-7 -7 -4 -15z"/>
<path d="M1360 2041 c0 -5 5 -13 10 -16 6 -3 10 -2 10 4 0 5 -4 13 -10 16 -5
3 -10 2 -10 -4z"/>
<path d="M11982 2003 c-22 -52 -37 -103 -30 -103 3 0 19 7 37 16 17 9 39 13
47 10 11 -4 15 -2 12 6 -3 7 -13 37 -22 66 -10 28 -19 52 -21 52 -1 0 -12 -21
-23 -47z"/>
<path d="M6775 2020 c3 -5 8 -10 11 -10 2 0 4 5 4 10 0 6 -5 10 -11 10 -5 0
-7 -4 -4 -10z"/>
<path d="M9643 2006 c20 -52 29 -162 18 -234 -25 -166 -108 -268 -249 -307
-34 -10 -40 -13 -21 -14 33 -1 129 29 129 41 0 4 6 8 13 8 19 1 67 47 67 65 0
9 7 18 15 21 8 4 15 16 15 29 0 12 7 28 15 35 8 7 15 25 15 41 0 15 5 31 10
34 6 4 10 57 10 126 0 73 -4 119 -10 119 -5 0 -10 9 -10 19 0 11 -5 23 -12 27
-8 5 -9 2 -5 -10z"/>
<path d="M6790 1998 c0 -12 48 -67 53 -61 13 12 7 53 -7 53 -8 0 -21 3 -30 6
-9 3 -16 4 -16 2z"/>
<path d="M8516 1978 c3 -4 18 -17 34 -28 l30 -21 0 24 c0 21 -6 25 -34 29 -19
2 -33 0 -30 -4z"/>
<path d="M1390 1970 c0 -5 5 -10 11 -10 5 0 7 5 4 10 -3 6 -8 10 -11 10 -2 0
-4 -4 -4 -10z"/>
<path d="M12156 1965 c4 -8 8 -15 10 -15 2 0 4 7 4 15 0 8 -4 15 -10 15 -5 0
-7 -7 -4 -15z"/>
<path d="M6415 1950 c3 -5 8 -10 11 -10 2 0 4 5 4 10 0 6 -5 10 -11 10 -5 0
-7 -4 -4 -10z"/>
<path d="M262 1850 c-1 -58 2 -111 6 -117 4 -7 6 31 4 85 -4 140 -9 153 -10
32z"/>
<path d="M6911 1933 c-1 -16 5 -23 17 -23 10 0 13 3 6 8 -6 4 -14 14 -17 22
-4 10 -6 8 -6 -7z"/>
<path d="M10142 1915 c0 -16 2 -22 5 -12 2 9 2 23 0 30 -3 6 -5 -1 -5 -18z"/>
<path d="M1416 1905 c4 -8 8 -15 10 -15 2 0 4 7 4 15 0 8 -4 15 -10 15 -5 0
-7 -7 -4 -15z"/>
<path d="M6445 1900 c4 -14 15 -54 26 -90 33 -120 20 -279 -33 -384 -40 -80
-131 -187 -276 -322 -287 -269 -381 -390 -402 -521 -6 -34 -6 -62 0 -72 8 -13
9 -11 10 11 0 15 5 30 10 33 6 3 10 23 10 45 0 24 5 40 15 44 8 3 15 16 15 30
0 13 7 26 15 30 8 3 15 16 15 30 0 13 7 26 15 30 8 3 15 12 15 21 0 8 5 15 10
15 6 0 10 7 10 15 0 8 5 15 10 15 13 0 50 37 50 50 0 6 4 10 9 10 6 0 18 14
28 30 9 17 21 30 25 30 11 0 48 38 48 50 0 6 4 10 10 10 5 0 26 16 46 35 19
19 40 35 45 35 5 0 9 7 9 15 0 8 4 15 10 15 5 0 24 16 43 35 19 19 39 35 46
35 6 0 11 5 11 11 0 11 60 69 72 69 5 0 8 7 8 15 0 9 7 18 15 21 8 4 15 13 15
20 0 8 7 17 15 20 8 4 15 13 15 21 0 8 7 21 15 29 8 9 15 24 15 34 0 10 5 22
10 25 6 3 10 14 10 24 0 10 7 24 15 31 21 18 20 304 -1 321 -8 6 -14 21 -14
33 0 11 -10 32 -21 46 l-21 25 7 -25z"/>
<path d="M2803 1855 c0 -27 2 -38 4 -22 2 15 2 37 0 50 -2 12 -4 0 -4 -28z"/>
<path d="M4493 1860 c0 -25 2 -35 4 -22 2 12 2 32 0 45 -2 12 -4 2 -4 -23z"/>
<path d="M12186 1880 c3 -14 12 -38 19 -55 l13 -30 1 30 c0 17 -9 41 -20 55
l-20 25 7 -25z"/>
<path d="M13960 1850 c0 -29 4 -40 13 -37 6 2 12 19 12 37 0 18 -6 35 -12 38
-9 2 -13 -9 -13 -38z"/>
<path d="M11926 1854 c-4 -9 -4 -19 -2 -21 8 -8 26 8 26 23 0 19 -16 18 -24
-2z"/>
<path d="M10770 1844 c0 -8 5 -12 11 -9 5 4 31 10 57 15 l47 8 -57 1 c-46 1
-58 -2 -58 -15z"/>
<path d="M11612 1840 c0 -14 2 -19 5 -12 2 6 2 18 0 25 -3 6 -5 1 -5 -13z"/>
<path d="M1446 1835 c4 -8 8 -15 10 -15 2 0 4 7 4 15 0 8 -4 15 -10 15 -5 0
-7 -7 -4 -15z"/>
<path d="M2540 1830 c0 -5 4 -10 9 -10 6 0 13 5 16 10 3 6 -1 10 -9 10 -9 0
-16 -4 -16 -10z"/>
<path d="M4230 1830 c0 -12 8 -12 35 0 18 8 17 9 -7 9 -16 1 -28 -3 -28 -9z"/>
<path d="M9900 1824 c0 -8 5 -12 11 -9 6 4 23 11 37 15 25 8 24 8 -10 9 -28 1
-38 -3 -38 -15z"/>
<path d="M10028 1833 c7 -3 16 -2 19 1 4 3 -2 6 -13 5 -11 0 -14 -3 -6 -6z"/>
<path d="M11370 1830 c0 -5 4 -10 9 -10 6 0 13 5 16 10 3 6 -1 10 -9 10 -9 0
-16 -4 -16 -10z"/>
<path d="M13726 1832 c-8 -13 -5 -273 4 -317 5 -26 8 19 9 131 l1 171 33 11
32 10 -37 1 c-20 1 -39 -3 -42 -7z"/>
<path d="M13838 1833 c6 -2 18 -2 25 0 6 3 1 5 -13 5 -14 0 -19 -2 -12 -5z"/>
<path d="M1111 1804 c0 -11 3 -14 6 -6 3 7 2 16 -1 19 -3 4 -6 -2 -5 -13z"/>
<path d="M835 1799 c-11 -17 -2 -18 25 -4 24 14 24 14 3 15 -12 0 -25 -5 -28
-11z"/>
<path d="M1460 1803 c1 -21 59 -126 59 -108 1 11 -5 29 -13 40 -7 11 -16 32
-20 48 -6 24 -27 40 -26 20z"/>
<path d="M3170 1794 c0 -11 5 -14 18 -9 9 4 22 8 29 8 23 1 2 17 -23 17 -15 0
-24 -6 -24 -16z"/>
<path d="M11905 1787 c-8 -28 -3 -42 12 -36 5 2 6 18 2 34 l-6 30 -8 -28z"/>
<path d="M6910 1787 c0 -23 11 -25 50 -11 33 12 33 13 8 13 -14 1 -33 4 -42 7
-10 4 -16 1 -16 -9z"/>
<path d="M8510 1749 c-130 -102 -273 -171 -445 -214 -49 -13 -82 -24 -71 -24
23 -1 121 23 205 52 79 26 275 124 308 153 6 7 28 15 48 18 31 6 35 11 35 36
0 17 -3 30 -7 30 -5 0 -37 -23 -73 -51z"/>
<path d="M9900 1650 c0 -134 2 -151 15 -140 12 10 15 39 15 140 0 101 -3 130
-15 140 -13 11 -15 -6 -15 -140z"/>
<path d="M11105 1790 c3 -5 8 -10 11 -10 2 0 4 5 4 10 0 6 -5 10 -11 10 -5 0
-7 -4 -4 -10z"/>
<path d="M3416 1767 c10 -14 22 -27 27 -27 15 0 6 16 -20 34 l-27 20 20 -27z"/>
<path d="M11377 1783 c-11 -11 -8 -283 3 -283 6 0 10 55 10 145 0 80 -1 145
-3 145 -2 0 -7 -3 -10 -7z"/>
<path d="M12220 1781 c0 -5 5 -13 10 -16 6 -3 10 -2 10 4 0 5 -4 13 -10 16 -5
3 -10 2 -10 -4z"/>
<path d="M6791 1697 c-29 -43 -50 -83 -47 -90 3 -7 7 -3 11 9 9 29 61 57 90
50 23 -6 24 -4 18 26 -17 90 -15 90 -72 5z"/>
<path d="M11132 1744 c7 -15 14 -21 16 -15 5 16 -5 41 -17 41 -7 0 -6 -10 1
-26z"/>
<path d="M3170 1639 c0 -89 4 -130 13 -144 12 -15 14 1 11 115 -4 176 -24 200
-24 29z"/>
<path d="M12230 1743 c0 -5 5 -15 10 -23 8 -12 10 -11 10 8 0 12 -4 22 -10 22
-5 0 -10 -3 -10 -7z"/>
<path d="M1080 1721 c0 -8 130 -3 139 5 2 2 -28 4 -67 4 -40 0 -72 -4 -72 -9z"/>
<path d="M3456 1715 c4 -8 10 -15 15 -15 4 0 6 7 3 15 -4 8 -10 15 -15 15 -4
0 -6 -7 -3 -15z"/>
<path d="M11879 1703 c-30 -76 -37 -103 -29 -103 6 0 10 8 10 19 0 10 7 24 15
31 8 7 15 18 15 26 0 18 17 27 80 40 l55 12 -68 1 c-65 1 -68 0 -78 -26z"/>
<path d="M4233 1675 c0 -22 2 -30 4 -17 2 12 2 30 0 40 -3 9 -5 -1 -4 -23z"/>
<path d="M6936 1663 c10 -40 14 -41 14 -5 0 18 -5 32 -10 32 -6 0 -8 -11 -4
-27z"/>
<path d="M3486 1665 c4 -8 8 -15 10 -15 2 0 4 7 4 15 0 8 -4 15 -10 15 -5 0
-7 -7 -4 -15z"/>
<path d="M12260 1663 c0 -10 5 -25 10 -33 8 -12 10 -9 10 12 0 15 -4 30 -10
33 -5 3 -10 -2 -10 -12z"/>
<path d="M286 1655 c4 -8 8 -15 10 -15 2 0 4 7 4 15 0 8 -4 15 -10 15 -5 0 -7
-7 -4 -15z"/>
<path d="M1520 1658 c0 -7 5 -20 10 -28 8 -12 10 -11 10 7 0 12 -4 25 -10 28
-5 3 -10 0 -10 -7z"/>
<path d="M3510 1630 c0 -21 43 -95 48 -82 2 7 -3 21 -12 31 -9 10 -16 25 -16
34 0 9 -4 19 -10 22 -5 3 -10 1 -10 -5z"/>
<path d="M2291 1601 c-7 -13 -21 -52 -31 -87 -17 -62 -17 -64 1 -64 25 0 33
17 13 28 -15 8 -15 10 0 15 11 4 16 19 16 45 0 21 5 43 11 49 6 6 9 17 7 25
-3 9 -9 5 -17 -11z"/>
<path d="M14073 1608 c-11 -17 -42 -152 -37 -157 2 -3 17 5 32 18 15 12 35 24
45 28 14 4 17 17 17 64 0 56 -1 59 -24 59 -14 0 -28 -6 -33 -12z"/>
<path d="M310 1601 c0 -5 5 -13 10 -16 6 -3 10 -2 10 4 0 5 -4 13 -10 16 -5 3
-10 2 -10 -4z"/>
<path d="M4233 1560 c0 -30 2 -43 4 -27 2 15 2 39 0 55 -2 15 -4 2 -4 -28z"/>
<path d="M4605 1600 c-8 -14 -44 -144 -41 -148 2 -1 10 0 19 4 10 3 19 23 23
50 3 24 10 47 15 50 12 7 12 54 0 54 -6 0 -13 -5 -16 -10z"/>
<path d="M11756 1595 c-50 -18 -52 -20 -69 -87 -12 -50 -12 -58 0 -58 20 0 49
30 31 31 -7 1 1 4 17 8 23 5 35 17 52 51 23 47 28 70 16 70 -5 -1 -25 -7 -47
-15z"/>
<path d="M12280 1599 c1 -8 7 -27 15 -44 l13 -30 1 31 c1 17 -6 37 -14 44 -12
10 -15 10 -15 -1z"/>
<path d="M5898 1590 c-47 -14 -99 -51 -129 -93 -31 -43 -38 -67 -14 -47 8 7
15 18 15 25 0 23 62 74 111 91 27 10 49 22 49 26 0 4 -1 8 -2 7 -2 0 -15 -4
-30 -9z"/>
<path d="M11122 1560 c-25 -45 -89 -86 -153 -100 l-44 -9 53 4 c38 3 62 11 83
30 17 14 36 25 42 25 18 1 49 48 45 70 -2 16 -8 12 -26 -20z"/>
<path d="M6677 1492 c-27 -57 -46 -106 -43 -109 3 -3 9 3 13 13 3 10 17 33 30
50 13 17 23 37 23 44 0 7 7 18 16 24 10 8 14 23 12 46 -3 33 -6 28 -51 -68z"/>
<path d="M1556 1565 c4 -8 8 -15 10 -15 2 0 4 7 4 15 0 8 -4 15 -10 15 -5 0
-7 -7 -4 -15z"/>
<path d="M6975 1523 c17 -57 58 -163 73 -189 10 -17 11 -16 12 9 0 16 -7 35
-15 43 -8 9 -15 24 -15 34 0 10 -4 22 -10 25 -5 3 -10 13 -10 21 0 16 -38 104
-45 104 -2 0 2 -21 10 -47z"/>
<path d="M10222 1534 c-21 -85 -21 -85 -4 -82 12 2 19 18 24 53 9 61 -7 83
-20 29z"/>
<path d="M1012 1530 c0 -14 2 -19 5 -12 2 6 2 18 0 25 -3 6 -5 1 -5 -13z"/>
<path d="M2882 1493 c-12 -38 -9 -54 7 -37 12 13 22 74 12 74 -4 0 -13 -17
-19 -37z"/>
<path d="M5086 1513 c35 -171 75 -308 96 -328 13 -13 0 55 -13 70 -5 5 -9 21
-9 36 0 15 -6 34 -13 41 -13 14 -47 140 -47 176 0 12 -4 22 -9 22 -5 0 -7 -8
-5 -17z"/>
<path d="M12535 1520 c3 -5 8 -10 11 -10 2 0 4 5 4 10 0 6 -5 10 -11 10 -5 0
-7 -4 -4 -10z"/>
<path d="M1585 1510 c3 -5 8 -10 11 -10 2 0 4 5 4 10 0 6 -5 10 -11 10 -5 0
-7 -4 -4 -10z"/>
<path d="M7923 1503 c9 -2 25 -2 35 0 9 3 1 5 -18 5 -19 0 -27 -2 -17 -5z"/>
<path d="M735 1478 c-27 -11 -77 -26 -110 -33 -39 -9 -49 -14 -30 -14 58 -1
205 45 205 64 0 8 -11 5 -65 -17z"/>
<path d="M7790 1485 c7 -9 16 -12 19 -7 3 5 13 12 21 15 8 3 0 6 -19 6 -29 1
-32 -1 -21 -14z"/>
<path d="M3609 1451 c14 -26 31 -36 31 -19 0 7 -9 19 -21 26 -19 12 -19 11
-10 -7z"/>
<path d="M2668 1443 c6 -2 18 -2 25 0 6 3 1 5 -13 5 -14 0 -19 -2 -12 -5z"/>
<path d="M2788 1443 c12 -2 30 -2 40 0 9 3 -1 5 -23 4 -22 0 -30 -2 -17 -4z"/>
<path d="M3788 1443 c12 -2 32 -2 45 0 12 2 2 4 -23 4 -25 0 -35 -2 -22 -4z"/>
<path d="M4113 1443 c9 -2 25 -2 35 0 9 3 1 5 -18 5 -19 0 -27 -2 -17 -5z"/>
<path d="M9078 1443 c18 -2 45 -2 60 0 15 2 0 4 -33 4 -33 0 -45 -2 -27 -4z"/>
<path d="M11273 1443 c15 -2 37 -2 50 0 12 2 0 4 -28 4 -27 0 -38 -2 -22 -4z"/>
<path d="M8300 1433 c0 -5 7 -18 15 -29 12 -16 14 -16 15 -3 0 9 -7 22 -15 29
-8 7 -15 8 -15 3z"/>
<path d="M7905 1350 c3 -5 8 -10 11 -10 2 0 4 5 4 10 0 6 -5 10 -11 10 -5 0
-7 -4 -4 -10z"/>
<path d="M3795 1340 c-11 -5 -42 -10 -70 -11 -42 -2 -44 -3 -15 -6 45 -6 120
5 120 18 0 11 -8 11 -35 -1z"/>
<path d="M6593 1275 c-29 -99 -42 -160 -48 -235 -5 -62 -4 -64 10 -35 8 17 14
49 15 72 0 23 4 44 9 47 4 3 8 24 8 46 0 23 7 48 16 58 11 12 13 22 7 32 -5 9
-5 19 1 27 6 6 9 22 7 35 -2 16 -10 1 -25 -47z"/>
<path d="M8350 1294 c-17 -15 -38 -40 -46 -58 -15 -30 -14 -30 23 9 21 22 49
48 63 58 18 12 20 17 8 17 -9 0 -30 -12 -48 -26z"/>
<path d="M8553 1219 c-16 -46 -28 -86 -26 -89 8 -9 52 56 53 79 0 14 7 32 15
41 12 14 13 19 2 34 -12 16 -17 9 -44 -65z"/>
<path d="M7102 1228 c8 -13 25 -41 38 -62 14 -23 26 -34 28 -27 2 7 0 16 -4
20 -5 3 -22 25 -37 49 -15 23 -30 42 -33 42 -4 0 0 -10 8 -22z"/>
<path d="M7990 1226 c0 -17 34 -70 37 -59 3 7 -5 25 -16 39 -12 15 -21 24 -21
20z"/>
<path d="M8040 1121 c0 -5 5 -13 10 -16 6 -3 10 -2 10 4 0 5 -4 13 -10 16 -5
3 -10 2 -10 -4z"/>
<path d="M8475 1028 c-51 -106 -182 -305 -253 -385 -30 -35 -52 -63 -49 -63 8
0 77 69 77 76 0 3 11 15 25 28 14 13 25 27 25 33 0 5 13 20 30 33 16 14 29 31
30 38 0 6 5 12 10 12 6 0 13 8 17 18 15 47 38 92 45 92 4 0 8 7 8 15 0 8 5 15
10 15 6 0 15 11 20 25 5 14 14 25 20 25 5 0 10 15 10 34 0 19 4 37 9 40 11 7
22 46 13 46 -4 0 -25 -37 -47 -82z"/>
<path d="M5220 1081 c0 -6 5 -13 10 -16 6 -3 10 1 10 9 0 9 -4 16 -10 16 -5 0
-10 -4 -10 -9z"/>
<path d="M7215 1050 c3 -5 8 -10 11 -10 2 0 4 5 4 10 0 6 -5 10 -11 10 -5 0
-7 -4 -4 -10z"/>
<path d="M5250 1031 c0 -18 44 -84 48 -72 2 7 -3 20 -12 30 -9 10 -16 23 -16
29 0 6 -4 14 -10 17 -5 3 -10 2 -10 -4z"/>
<path d="M7240 1026 c0 -4 9 -16 20 -28 11 -12 20 -17 20 -11 0 5 -9 18 -20
28 -11 10 -20 15 -20 11z"/>
<path d="M7295 960 c3 -5 8 -10 11 -10 2 0 4 5 4 10 0 6 -5 10 -11 10 -5 0 -7
-4 -4 -10z"/>
<path d="M8098 945 c2 -14 6 -25 8 -25 2 0 4 11 4 25 0 14 -4 25 -9 25 -4 0
-6 -11 -3 -25z"/>
<path d="M7230 840 c1 -87 2 -93 16 -75 8 11 13 27 11 36 -7 25 7 41 37 42 14
1 26 2 26 2 0 1 -20 21 -45 45 l-45 44 0 -94z"/>
<path d="M5346 862 c30 -51 53 -77 61 -69 4 5 0 13 -10 18 -9 6 -17 16 -17 23
0 8 -7 16 -15 20 -8 3 -15 12 -15 21 0 8 -5 15 -11 15 -6 0 -3 -12 7 -28z"/>
<path d="M8127 772 c2 -37 7 -78 9 -92 l6 -25 30 34 30 33 -31 15 c-27 13 -31
21 -31 54 0 21 -4 40 -9 43 -5 3 -7 -24 -4 -62z"/>
<path d="M6547 713 c7 -48 51 -201 63 -222 8 -13 9 -11 9 9 0 14 -6 36 -14 50
-8 14 -14 44 -15 67 0 23 -4 45 -10 48 -5 3 -10 17 -10 30 0 29 -10 55 -20 55
-5 0 -6 -17 -3 -37z"/>
<path d="M7215 684 c-3 -25 -9 -53 -12 -62 -4 -10 -1 -13 8 -10 16 5 33 98 20
111 -5 5 -12 -13 -16 -39z"/>
<path d="M5475 690 c3 -5 8 -10 11 -10 2 0 4 5 4 10 0 6 -5 10 -11 10 -5 0 -7
-4 -4 -10z"/>
<path d="M7187 566 c-4 -10 -5 -21 -2 -24 9 -9 17 6 13 25 -3 17 -4 17 -11 -1z"/>
<path d="M8105 519 c-67 -68 -162 -145 -265 -214 -47 -31 -74 -54 -60 -50 13
4 30 14 38 22 8 8 34 23 58 35 24 11 44 24 44 29 0 5 5 9 10 9 6 0 21 10 34
23 12 12 39 33 59 47 20 14 37 29 37 33 0 12 27 37 39 37 6 0 11 5 11 10 0 6
7 10 15 10 8 0 15 6 15 14 0 8 7 16 15 20 16 6 21 26 7 26 -4 0 -30 -23 -57
-51z"/>
<path d="M5639 526 c42 -44 51 -45 51 -6 0 20 -4 28 -13 24 -8 -3 -27 0 -43 6
l-29 11 34 -35z"/>
<path d="M7118 392 c-50 -102 -177 -291 -212 -314 -6 -5 -7 -8 -1 -8 14 1 45
25 45 36 0 12 37 44 50 44 6 0 10 5 10 11 0 7 11 22 25 35 14 13 25 34 25 49
0 14 7 28 15 31 8 4 15 15 15 25 0 11 7 22 15 25 8 4 15 12 15 19 0 7 7 15 15
19 8 3 15 14 15 25 0 11 4 21 9 23 6 2 24 99 17 98 0 -1 -27 -53 -58 -118z"/>
<path d="M6630 431 c0 -5 5 -13 10 -16 6 -3 10 -2 10 4 0 5 -4 13 -10 16 -5 3
-10 2 -10 -4z"/>
<path d="M6662 375 c2 -5 16 -35 33 -65 21 -41 30 -50 33 -36 2 11 -3 23 -12
28 -9 5 -16 14 -16 21 0 7 -10 23 -21 37 -11 14 -19 21 -17 15z"/>
<path d="M7621 183 c-62 -31 -157 -71 -210 -89 -53 -18 -88 -33 -79 -34 38 -1
319 113 389 158 57 36 20 23 -100 -35z"/>
<path d="M6775 190 c3 -5 8 -10 11 -10 2 0 4 5 4 10 0 6 -5 10 -11 10 -5 0 -7
-4 -4 -10z"/>
<path d="M6795 160 c3 -5 8 -10 11 -10 2 0 4 5 4 10 0 6 -5 10 -11 10 -5 0 -7
-4 -4 -10z"/>
<path d="M6820 130 c0 -15 21 -23 32 -12 6 6 2 11 -11 15 -12 3 -21 1 -21 -3z"/>
<path d="M7260 50 c-20 -6 -21 -8 -5 -8 11 0 29 3 40 8 25 11 -1 11 -35 0z"/>
<path d="M7198 33 c6 -2 18 -2 25 0 6 3 1 5 -13 5 -14 0 -19 -2 -12 -5z"/>
<path d="M7124 24 c-6 -3 -47 -8 -90 -13 l-79 -8 65 -1 c36 -1 88 5 115 12 30
9 40 14 25 14 -14 0 -30 -2 -36 -4z"/>
<path d="M6558 13 c6 -2 18 -2 25 0 6 3 1 5 -13 5 -14 0 -19 -2 -12 -5z"/>
<path d="M6618 3 c12 -2 32 -2 45 0 12 2 2 4 -23 4 -25 0 -35 -2 -22 -4z"/>
</g>
</svg>
